<?xml version="1.0" encoding="utf-8"?>
<!-- Generator: Adobe Illustrator 18.1.1, SVG Export Plug-In . SVG Version: 6.00 Build 0)  -->
<svg version="1.1" id="Layer_1" xmlns="http://www.w3.org/2000/svg" xmlns:xlink="http://www.w3.org/1999/xlink" x="0px" y="0px"
	 viewBox="0 0 107.7 87.4" enable-background="new 0 0 107.7 87.4" xml:space="preserve">
<g>
	<g>
		<g>
			<path fill="#FFFFFF" d="M7.2,41.6c0-0.5,0.4-1,1-1h3c3.4,0,5.7,2.3,5.7,5.3v0c0,3-2.3,5.4-5.7,5.4h-3c-0.5,0-1-0.4-1-1V41.6z
				 M11.2,49.7c2.3,0,3.7-1.5,3.7-3.6v0c0-2.1-1.5-3.6-3.7-3.6H9.1v7.3H11.2z"/>
			<path fill="#FFFFFF" d="M19.7,41.5c0-0.5,0.4-0.9,1-0.9c0.5,0,0.9,0.4,0.9,0.9v9c0,0.5-0.4,0.9-0.9,0.9c-0.5,0-1-0.4-1-0.9V41.5z
				"/>
			<path fill="#FFFFFF" d="M24.8,50.4v-8.8c0-0.5,0.4-1,1-1H32c0.5,0,0.8,0.4,0.8,0.8c0,0.5-0.4,0.8-0.8,0.8h-5.3v2.8h4.6
				c0.5,0,0.8,0.4,0.8,0.9c0,0.5-0.4,0.8-0.8,0.8h-4.6v2.9h5.4c0.5,0,0.8,0.4,0.8,0.8c0,0.5-0.4,0.8-0.8,0.8h-6.3
				C25.3,51.4,24.8,51,24.8,50.4z"/>
			<path fill="#FFFFFF" d="M38.1,42.4h-2.6c-0.5,0-0.9-0.4-0.9-0.9c0-0.5,0.4-0.9,0.9-0.9h7.1c0.5,0,0.9,0.4,0.9,0.9
				c0,0.5-0.4,0.9-0.9,0.9H40v8.1c0,0.5-0.4,0.9-1,0.9c-0.5,0-0.9-0.4-0.9-0.9V42.4z"/>
			<path fill="#FFFFFF" d="M45.8,50.4v-8.8c0-0.5,0.4-1,1-1H53c0.5,0,0.8,0.4,0.8,0.8c0,0.5-0.4,0.8-0.8,0.8h-5.3v2.8h4.6
				c0.5,0,0.8,0.4,0.8,0.9c0,0.5-0.4,0.8-0.8,0.8h-4.6v2.9h5.4c0.5,0,0.8,0.4,0.8,0.8c0,0.5-0.4,0.8-0.8,0.8h-6.3
				C46.2,51.4,45.8,51,45.8,50.4z M49.3,39.5c0-0.1,0.1-0.2,0.1-0.3l0.9-1.3c0.2-0.3,0.4-0.4,0.7-0.4c0.5,0,1.1,0.3,1.1,0.6
				c0,0.2-0.1,0.3-0.3,0.5l-1,1c-0.4,0.3-0.7,0.4-1.1,0.4C49.5,39.8,49.3,39.7,49.3,39.5z"/>
			<path fill="#FFFFFF" d="M59.1,42.4h-2.6c-0.5,0-0.9-0.4-0.9-0.9c0-0.5,0.4-0.9,0.9-0.9h7.1c0.5,0,0.9,0.4,0.9,0.9
				c0,0.5-0.4,0.9-0.9,0.9H61v8.1c0,0.5-0.4,0.9-1,0.9c-0.5,0-1-0.4-1-0.9V42.4z"/>
			<path fill="#FFFFFF" d="M66.9,41.5c0-0.5,0.4-0.9,1-0.9c0.5,0,0.9,0.4,0.9,0.9v9c0,0.5-0.4,0.9-0.9,0.9c-0.5,0-1-0.4-1-0.9V41.5z
				"/>
			<path fill="#FFFFFF" d="M71.6,46L71.6,46c0-3.1,2.3-5.6,5.5-5.6c1.7,0,2.7,0.5,3.7,1.2c0.2,0.2,0.4,0.4,0.4,0.8
				c0,0.5-0.4,0.9-0.9,0.9c-0.3,0-0.4-0.1-0.6-0.2c-0.7-0.6-1.5-1-2.6-1c-2,0-3.5,1.7-3.5,3.8v0c0,2.1,1.5,3.8,3.5,3.8
				c1.1,0,1.9-0.4,2.7-1c0.1-0.1,0.3-0.2,0.6-0.2c0.5,0,0.9,0.4,0.9,0.9c0,0.3-0.1,0.5-0.3,0.7c-1,0.9-2.2,1.4-3.9,1.4
				C73.9,51.6,71.6,49.1,71.6,46z"/>
			<path fill="#FFFFFF" d="M83.1,50.2l4-8.9c0.2-0.5,0.6-0.8,1.1-0.8h0.1c0.5,0,0.9,0.3,1.1,0.8l4,8.9c0.1,0.1,0.1,0.3,0.1,0.4
				c0,0.5-0.4,0.9-0.9,0.9c-0.4,0-0.8-0.3-0.9-0.7l-0.9-2h-5.2l-0.9,2.1c-0.2,0.4-0.5,0.6-0.9,0.6c-0.5,0-0.9-0.4-0.9-0.9
				C83,50.4,83,50.3,83.1,50.2z M90.1,47.1l-1.9-4.3l-1.9,4.3H90.1z"/>
			<path fill="#FFFFFF" d="M95.6,50.2c-0.2-0.2-0.4-0.4-0.4-0.7c0-0.5,0.4-0.9,0.9-0.9c0.3,0,0.4,0.1,0.6,0.2c0.9,0.7,1.8,1.1,3,1.1
				c1.2,0,1.9-0.6,1.9-1.3v0c0-0.8-0.4-1.2-2.4-1.6c-2.3-0.6-3.6-1.2-3.6-3.2v0c0-1.8,1.5-3.1,3.7-3.1c1.3,0,2.4,0.4,3.4,1
				c0.2,0.1,0.4,0.4,0.4,0.8c0,0.5-0.4,0.9-0.9,0.9c-0.2,0-0.3,0-0.5-0.1c-0.8-0.5-1.6-0.8-2.5-0.8c-1.1,0-1.7,0.6-1.7,1.3v0
				c0,0.8,0.5,1.2,2.6,1.7c2.3,0.6,3.4,1.4,3.4,3.1v0c0,2-1.6,3.2-3.8,3.2C98.1,51.5,96.8,51.1,95.6,50.2z"/>
		</g>
		<g>
			<path fill="#FFFFFF" d="M35,63h-2.6c-0.5,0-0.9-0.4-0.9-0.9c0-0.5,0.4-0.9,0.9-0.9h7.1c0.5,0,0.9,0.4,0.9,0.9
				c0,0.5-0.4,0.9-0.9,0.9h-2.6v8.1c0,0.5-0.4,0.9-1,0.9s-1-0.4-1-0.9V63z"/>
			<path fill="#FFFFFF" d="M41.6,66.7L41.6,66.7c0-3,2.3-5.6,5.6-5.6c3.3,0,5.6,2.5,5.6,5.5v0c0,3-2.3,5.5-5.6,5.5
				C43.9,72.2,41.6,69.7,41.6,66.7z M50.9,66.7L50.9,66.7c0-2.1-1.5-3.8-3.6-3.8c-2.1,0-3.6,1.7-3.6,3.8v0c0,2.1,1.5,3.8,3.6,3.8
				C49.4,70.5,50.9,68.8,50.9,66.7z"/>
			<path fill="#FFFFFF" d="M55.5,62.2c0-0.5,0.4-1,1-1h0.2c0.4,0,0.7,0.2,0.9,0.5l3.3,5.1l3.3-5.1c0.2-0.3,0.5-0.5,0.9-0.5h0.2
				c0.5,0,1,0.4,1,1v9c0,0.5-0.4,0.9-1,0.9c-0.5,0-0.9-0.4-0.9-0.9v-6.4l-2.6,3.9c-0.2,0.3-0.4,0.5-0.8,0.5c-0.3,0-0.6-0.2-0.8-0.5
				l-2.6-3.9v6.4c0,0.5-0.4,0.9-0.9,0.9c-0.5,0-0.9-0.4-0.9-0.9V62.2z"/>
			<path fill="#FFFFFF" d="M72.2,67.9l-3.7-5.1c-0.1-0.2-0.2-0.4-0.2-0.7c0-0.5,0.4-0.9,1-0.9c0.4,0,0.7,0.2,0.9,0.6l3,4.3l3-4.3
				c0.2-0.3,0.5-0.6,0.9-0.6c0.6,0,0.9,0.4,0.9,0.9c0,0.3-0.1,0.5-0.3,0.7l-3.7,5v3.4c0,0.5-0.4,0.9-1,0.9c-0.5,0-0.9-0.4-0.9-0.9
				V67.9z"/>
		</g>
	</g>
	<g>
		<path fill="#F7921E" d="M36.7,36.7c0.2,0.1,0.5,0.2,0.8,0.2c0.5,0,1-0.3,1.2-0.7L55.5,9.1l16.8,27.1c0.3,0.4,0.7,0.7,1.2,0.7
			c0.3,0,0.5-0.1,0.8-0.2c0.3-0.2,0.6-0.5,0.6-0.9c0.1-0.4,0-0.8-0.2-1.1L57.2,6.4l1.7-2.7c0.2-0.3,0.3-0.7,0.2-1.1
			c-0.1-0.4-0.3-0.7-0.6-0.9c-0.2-0.1-0.5-0.2-0.8-0.2c-0.5,0-1,0.3-1.2,0.7l-0.9,1.5l-0.9-1.5c-0.3-0.4-0.7-0.7-1.2-0.7
			c-0.3,0-0.5,0.1-0.8,0.2c-0.3,0.2-0.6,0.5-0.6,0.9c-0.1,0.4,0,0.8,0.2,1.1l1.7,2.7L36.2,34.7C35.8,35.4,36,36.3,36.7,36.7z"/>
		<path fill="#F7921E" d="M108.7,82.9c-0.3-0.3-0.6-0.4-1-0.4l-3.1,0L87.6,55c-0.2-0.3-0.5-0.6-0.9-0.7c-0.4-0.1-0.8,0-1.1,0.2
			c-0.2,0.1-0.4,0.3-0.5,0.6c-0.2,0.5-0.2,1,0.1,1.4l0,0.1c0,0.1,0.1,0.3,0.2,0.4l15.7,25.6l-91.2,0l15.8-25.4
			c0-0.1,0.1-0.1,0.1-0.2c0.2-0.3,0.3-0.6,0.3-0.9c0-0.9-0.7-1.6-1.6-1.6c0,0-0.1,0-0.1,0c-0.1,0-0.2,0-0.3,0
			c-0.4,0.1-0.7,0.3-0.9,0.6L6.2,82.5l-3.2,0c-0.4,0-0.7,0.2-1,0.4c-0.3,0.3-0.4,0.6-0.4,1c0,0.3,0.1,0.5,0.2,0.8
			c0.3,0.4,0.7,0.7,1.2,0.7l1.4,0l-0.8,1.3c-0.3,0.4-0.3,1-0.1,1.4c0.1,0.2,0.3,0.4,0.5,0.6c0.2,0.1,0.5,0.2,0.8,0.2
			c0.5,0,1-0.3,1.2-0.7l1.7-2.7h95.2l1.7,2.7c0.3,0.4,0.7,0.7,1.2,0.7c0.3,0,0.5-0.1,0.8-0.2c0.2-0.1,0.4-0.3,0.5-0.6
			c0.2-0.5,0.2-1-0.1-1.4l-0.8-1.3l1.4,0c0.5,0,1-0.3,1.2-0.7c0.1-0.2,0.2-0.5,0.2-0.8C109.2,83.6,109,83.2,108.7,82.9z"/>
	</g>
</g>
</svg>
